PathFileType	4	(X/Y/Z)	./resultDataOpenSim/trcMotMarkerGrf/sub09/qtm-15-05.trc
DataRate	CameraRate	NumFrames	NumMarkers	Units	OrigDataRate	OrigDataStartFrame	OrigNumFrames
250.000000	250.000000	8	24	m	250.000000	428	488
Frame#	Time	L.Toe.Tip			R.Toe.Tip			L.Ankle.Lat			R.Ankle.Lat			L.Ankle.Med			R.Ankle.Med			L.Heel			R.Heel			L.Knee.Lat			R.Knee.Lat			L.Knee.Med			R.Knee.Med			L.Thigh.Upper			R.Thigh.Upper			L.ASIS			R.ASIS			V.Sacral			L.Acromium			R.Acromium			C7			L.Elbow			R.Elbow			L.Wrist.Lat			R.Wrist.Lat
		X1	Y1	Z1	X2	Y2	Z2	X3	Y3	Z3	X4	Y4	Z4	X5	Y5	Z5	X6	Y6	Z6	X7	Y7	Z7	X8	Y8	Z8	X9	Y9	Z9	X10	Y10	Z10	X11	Y11	Z11	X12	Y12	Z12	X13	Y13	Z13	X14	Y14	Z14	X15	Y15	Z15	X16	Y16	Z16	X17	Y17	Z17	X18	Y18	Z18	X19	Y19	Z19	X20	Y20	Z20	X21	Y21	Z21	X22	Y22	Z22	X23	Y23	Z23	X24	Y24	Z24

428	1.708	1.8543539	0.11916104	-0.10875144	1.1433065	0.04085764	0.035458171	1.7021644	0.089191111	-0.13606333	1.0211326	0.10527985	0.077130101	1.7246216	0.11746333	-0.043737159	1.0390812	0.14009647	-0.013332778	1.6572188	0.026150047	-0.082527956	0.94336827	0.11393662	0.027734227	1.5668331	0.48742038	-0.16682349	1.2808686	0.48889647	0.13286006	1.5740898	0.48041412	-0.039578443	1.2598803	0.48241044	0.0084162691	1.3918334	0.86485504	-0.19638687	1.3596903	0.88396476	0.17671779	1.4590465	0.95854446	-0.1341719	1.4617301	0.96517073	0.10815277	1.2907967	1.0088854	-0.020606229	1.4229873	1.4089623	-0.19571674	1.4239235	1.4302232	0.13595913	1.3539404	1.4677673	-0.028891429	1.2673029	1.0737561	-0.23869795	1.2925301	1.0859229	0.22895869	1.3684417	0.84029574	-0.30605213	1.4830429	0.88259093	0.2259207
429	1.712	1.8570926	0.11469399	-0.10801041	1.1435932	0.041014734	0.035546749	1.7046302	0.086623914	-0.13582694	1.0244611	0.10718658	0.077796478	1.7271385	0.11468743	-0.043425062	1.0406244	0.14135554	-0.012753063	1.6586973	0.024347099	-0.082566857	0.94468205	0.1163056	0.028394699	1.5736875	0.48657989	-0.1670834	1.285858	0.48782556	0.13289138	1.5821876	0.4804395	-0.040044268	1.2651413	0.48105527	0.0083858253	1.3974207	0.86405184	-0.19744792	1.3654575	0.88266191	0.17599306	1.4653262	0.95745417	-0.13495687	1.4677452	0.96373898	0.10754949	1.2968314	1.0074861	-0.021407789	1.4278143	1.4077881	-0.19627792	1.4288061	1.4288791	0.13548057	1.3588148	1.4664156	-0.029377267	1.2727886	1.072266	-0.23954887	1.2979768	1.0842824	0.22805937	1.3741021	0.83894673	-0.30677531	1.4886894	0.88110275	0.22572768
430	1.716	1.8595811	0.10978637	-0.10711559	1.1438959	0.041171675	0.035647187	1.7069093	0.083996312	-0.13554752	1.0273765	0.10907937	0.078442928	1.7293285	0.1118471	-0.043008679	1.0423328	0.14264927	-0.012198882	1.659747	0.022710652	-0.082643906	0.94611673	0.11880428	0.02899168	1.5799482	0.48564429	-0.16725205	1.2911037	0.48671896	0.13298049	1.5901265	0.48041065	-0.040587453	1.2711037	0.47973895	0.0086562841	1.4029131	0.86326415	-0.19844055	1.3712531	0.88135294	0.17526688	1.4716754	0.95642553	-0.13573065	1.4738005	0.96231695	0.10694167	1.302933	1.0060744	-0.022169835	1.4326425	1.4066313	-0.19685184	1.4336919	1.4275357	0.13498998	1.3636787	1.4650437	-0.029858396	1.2782181	1.070715	-0.24058888	1.3034246	1.0826552	0.22715261	1.3798249	0.8375936	-0.30747809	1.4942909	0.87959923	0.22554198
431	1.72	1.862015	0.10420295	-0.1061633	1.144198	0.041299474	0.035826948	1.7091344	0.081449244	-0.13513989	1.029123	0.11079754	0.079045812	1.7314123	0.10913791	-0.042448331	1.0441914	0.14400865	-0.011656491	1.6605149	0.021469148	-0.082606263	0.94767697	0.12141914	0.02951732	1.5859588	0.48462231	-0.16736798	1.2965781	0.4855655	0.13312392	1.5979153	0.48029388	-0.041227137	1.2775341	0.47846147	0.0091166708	1.4082977	0.8624466	-0.1992551	1.3770628	0.88004485	0.17452063	1.4780746	0.95544673	-0.13648201	1.4798834	0.96091024	0.1063318	1.3090814	1.0046745	-0.022905042	1.4374748	1.4054923	-0.19743578	1.438588	1.426195	0.13448388	1.3685231	1.4636523	-0.030337218	1.2836226	1.0691234	-0.24175083	1.3088763	1.0810415	0.22623767	1.3856092	0.83624487	-0.30816309	1.499842	0.87808137	0.22535843
432	1.724	1.8646908	0.097914676	-0.10516461	1.1444954	0.041385878	0.036122877	1.7114638	0.07921968	-0.13456704	1.0295935	0.11230544	0.079600073	1.7337181	0.10678952	-0.041765177	1.0461747	0.14546575	-0.01110883	1.6612136	0.020908206	-0.082325604	0.94937064	0.12413672	0.029968301	1.5923712	0.48352779	-0.16752193	1.3022301	0.48437603	0.13331678	1.605534	0.4800537	-0.041962984	1.2839488	0.47717038	0.0094756324	1.413623	0.8615785	-0.1998447	1.3829004	0.87873347	0.17372992	1.4844832	0.95451481	-0.13719339	1.4859905	0.95952379	0.10572047	1.3152363	1.0033234	-0.023628217	1.4423108	1.404372	-0.1980285	1.4434971	1.4248608	0.13396519	1.3733486	1.4622707	-0.030830477	1.2890983	1.067539	-0.24284285	1.3143337	1.0794466	0.22531866	1.3914522	0.83490176	-0.30883122	1.5053453	0.87655402	0.22517543
433	1.728	1.8678853	0.091239828	-0.10403978	1.1448013	0.04145157	0.036507255	1.7140435	0.077537511	-0.13390508	1.0293646	0.11372554	0.080108223	1.7365561	0.10492625	-0.041060631	1.0482667	0.1470219	-0.010542105	1.6620695	0.021234037	-0.081786368	0.95120589	0.12695954	0.03035469	1.5993875	0.48241468	-0.16781236	1.3080331	0.48317419	0.13355496	1.6129238	0.47967205	-0.042752946	1.2900914	0.4757875	0.0095193953	1.419033	0.86066292	-0.20028325	1.3887813	0.87740642	0.17287692	1.4908576	0.95363764	-0.13784674	1.4921331	0.95815364	0.1051068	1.3213596	1.002059	-0.024346011	1.4471499	1.4032745	-0.19863246	1.4484186	1.423541	0.13344258	1.378162	1.4609384	-0.031351591	1.2947029	1.0660025	-0.24373941	1.3198008	1.0778714	0.2243984	1.397352	0.83356065	-0.30948247	1.5108105	0.87502144	0.22499703
434	1.732	1.8716479	0.084680982	-0.10278192	1.1451469	0.041542019	0.036919749	1.7169518	0.076470632	-0.13332212	1.0293764	0.11528446	0.080563408	1.7400246	0.10348732	-0.040474921	1.0504762	0.14865034	-0.0099441867	1.6632457	0.022375495	-0.081139251	0.95319218	0.12990681	0.030707315	1.6065804	0.48140399	-0.16828936	1.3140014	0.4819627	0.133818	1.6200653	0.47918076	-0.043514861	1.2960983	0.47426556	0.0093051381	1.4246986	0.85971997	-0.20073657	1.3947052	0.8760534	0.1719601	1.4971722	0.9528241	-0.13844543	1.49832	0.95679102	0.10448751	1.3274307	1.0009117	-0.025058444	1.4519931	1.4022071	-0.19925357	1.4533548	1.4222479	0.1329236	1.3829794	1.4596911	-0.031901021	1.3004127	1.0645231	-0.24447688	1.3252651	1.0763191	0.22346523	1.4033106	0.83222218	-0.31011519	1.516243	0.87348237	0.2248263
435	1.736	1.8756933	0.078677891	-0.10156648	1.1455619	0.041686274	0.037337756	1.7201629	0.075868568	-0.13298328	1.0301608	0.1171416	0.080966582	1.7439273	0.1023103	-0.040116932	1.0528361	0.15031868	-0.0093095055	1.6647713	0.023968472	-0.080648039	0.95534468	0.13300041	0.031073463	1.6135425	0.48065173	-0.16893043	1.3201433	0.48070816	0.13406445	1.627026	0.47868586	-0.044172104	1.3022399	0.47261454	0.0090705894	1.4306988	0.85878632	-0.20133409	1.4006687	0.87466607	0.17099365	1.503424	0.95207705	-0.13902379	1.5045446	0.95543271	0.10385619	1.3334511	0.99989286	-0.02575991	1.4568435	1.4011785	-0.19989753	1.4583056	1.4209973	0.13241183	1.3878284	1.4585586	-0.032471817	1.3061863	1.0630849	-0.24515138	1.3307156	1.0747996	0.22250638	1.4093297	0.83089555	-0.31072604	1.5216414	0.8719344	0.22465981
